<?xml version="1.0" encoding="utf-8"?>
<!-- Generator: Adobe Illustrator 25.4.1, SVG Export Plug-In . SVG Version: 6.00 Build 0)  -->
<svg version="1.1" id="Layer_1" xmlns="http://www.w3.org/2000/svg" xmlns:xlink="http://www.w3.org/1999/xlink" x="0px" y="0px"
	 viewBox="0 0 512 512" style="enable-background:new 0 0 512 512;" xml:space="preserve">
<style type="text/css">
	.st0{fill:#272727;}
	.st1{fill:#ECECEC;}
</style>
<rect y="-0.1" class="st0" width="512" height="512"/>
<g>
	<g>
		<g>
			<polygon class="st1" points="340.8,24 488,24 488,171.2 512,171.2 512,-0.1 340.8,-0.1 			"/>
			<polygon class="st1" points="24,171.2 24,24 171.2,24 171.2,-0.1 0,-0.1 0,171.2 			"/>
			<polygon class="st1" points="488,340.7 488,487.9 340.8,487.9 340.8,511.9 512,511.9 512,340.7 			"/>
			<polygon class="st1" points="171.2,487.9 24,487.9 24,340.7 0,340.7 0,511.9 171.2,511.9 			"/>
		</g>
		<g>
			<path class="st1" d="M231.7,278.4c0-48.9,0.8-99.2,1.6-127.7h-0.8c-9.7,47-32.1,153.9-52.7,238.6h-30.9
				c-15.4-74.7-38.9-189.5-48.4-239.2h-1.1c1.6,31,2.8,89.3,2.8,135v104.2H71.5V122.6h48.9c20.1,81.8,39.3,178.3,45.5,213.9h0.4
				c5.1-30.2,29.3-135.2,49.2-213.9h48.2v266.7h-31.9V278.4z"/>
			<polygon class="st1" points="440.5,360.7 355.7,360.7 355.7,122.6 322.9,122.6 322.9,389.3 440.5,389.3 			"/>
		</g>
	</g>
</g>
</svg>
